<svg width="292" height="163" viewBox="0 0 292 163" fill="none" xmlns="http://www.w3.org/2000/svg">
<g clip-path="url(#clip0_2890_126339)">
<path d="M61.7482 161.871H17.2903C17.2903 161.871 16.3733 148.725 21.7172 148.568C27.061 148.41 26.4602 154.386 33.132 146.177C39.8039 137.969 47.9302 138.409 48.9737 143.252C50.0172 148.096 46.95 151.996 52.5784 150.8C58.2068 149.605 66.3331 152.782 61.7482 161.871Z" fill="#E6E6E6"/>
<path d="M38.7604 161.871H38.6023C38.9501 153.222 40.7841 147.656 42.2386 144.51C43.8196 141.114 45.369 139.73 45.369 139.699L45.4639 139.824C45.4639 139.824 43.9461 141.208 42.3651 144.605C40.9106 147.718 39.1082 153.254 38.7604 161.871Z" fill="white"/>
<path d="M54.855 161.902L54.6969 161.871C55.8036 158.191 57.8273 154.858 60.5782 152.153L60.6731 152.279C57.9538 154.952 55.9617 158.254 54.855 161.902Z" fill="white"/>
<path d="M24.2783 161.903L24.1202 161.871C24.5945 158.632 24.0886 155.298 22.6341 152.373C22.0333 151.147 21.2744 149.983 20.3258 149.008L20.4207 148.914C21.3693 149.92 22.1598 151.084 22.7606 152.31C24.2467 155.267 24.7842 158.6 24.2783 161.903Z" fill="white"/>
<path d="M67.7876 162.091H12.484V161.902C12.4524 161.431 11.7567 150.518 15.2982 146.618C16.0254 145.8 17.0373 145.297 18.144 145.265C20.4522 145.202 21.9384 146.052 23.1083 146.743C25.3217 148.064 26.7763 148.914 32.1201 142.372C37.8749 135.264 44.1041 133.755 47.7088 134.604C50.0171 135.138 51.6297 136.711 52.0724 138.849C52.5151 140.894 52.3886 142.812 52.2621 144.353C52.1356 145.989 52.0408 147.31 52.7364 147.907C53.3056 148.41 54.4439 148.442 56.3095 148.033C60.1039 147.215 65.3844 147.907 68.0722 151.335C69.4951 153.159 70.6334 156.525 67.8824 161.997L67.7876 162.091ZM12.8634 161.682H67.5346C69.5899 157.531 69.6532 154.04 67.7243 151.555C65.2896 148.41 60.1671 147.593 56.3727 148.41C54.349 148.851 53.1475 148.756 52.4518 148.19C51.6297 147.467 51.7245 146.083 51.851 144.322C51.9775 142.812 52.104 140.925 51.6613 138.944C51.2186 136.931 49.7325 135.516 47.5823 134.981C44.1041 134.163 38.0647 135.673 32.4047 142.624C26.8711 149.448 25.1953 148.442 22.887 147.089C21.6854 146.398 20.3574 145.58 18.144 145.643C17.1638 145.674 16.2152 146.114 15.5827 146.869C12.3891 150.36 12.8002 160.204 12.8634 161.682Z" fill="#2F2E41"/>
<path d="M248.433 162.311H193.952V161.997L191.359 88.0259H251.026L248.433 162.311ZM194.584 161.682H247.833L250.394 88.6863H192.023L194.584 161.682Z" fill="#3F3D56"/>
<path d="M206.948 101.738H202.806V152.719H206.948V101.738Z" fill="#3F3D56"/>
<path d="M223.264 101.738H219.122V152.719H223.264V101.738Z" fill="#3F3D56"/>
<path d="M239.58 101.738H235.438V152.719H239.58V101.738Z" fill="#3F3D56"/>
<path d="M285.619 109.758L285.366 109.601L217.73 67.0801L223.612 57.8337L223.865 57.991L291.5 100.512L285.619 109.758ZM218.584 66.8599L285.429 108.877L290.615 100.7L223.801 58.7143L218.584 66.8599Z" fill="#3F3D56"/>
<path d="M269.303 63.652C263.643 60.0667 256.117 61.765 252.512 67.3946C250.963 69.8477 250.331 72.7411 250.742 75.6031L253.967 77.6159C251.88 72.7726 254.125 67.1744 258.995 65.0673C263.864 62.9916 269.492 65.2245 271.611 70.0679C273.698 74.9112 271.453 80.5093 266.583 82.6165C265.508 83.0882 264.338 83.3398 263.137 83.4027L266.362 85.4156C272.781 83.4656 276.386 76.7038 274.425 70.288C273.571 67.5518 271.769 65.1931 269.303 63.652Z" fill="#3F3D56"/>
<path d="M287.927 161.871H0.5V162.5H287.927V161.871Z" fill="#3F3D56"/>
<path d="M126.032 157.562H121.415L119.234 139.887H126.032V157.562Z" fill="#FEB8B8"/>
<path d="M112.562 161.84H127.044V156.273H118.095C115.06 156.273 112.593 158.726 112.593 161.745L112.562 161.84Z" fill="#2F2E41"/>
<path d="M124.419 130.201L127.581 133.503L141.968 122.904L137.289 117.998L124.419 130.201Z" fill="#FEB8B8"/>
<path d="M130.87 135.044L124.704 128.597L120.656 132.434L130.648 142.844L130.712 142.781C132.893 140.705 132.988 137.214 130.87 135.044Z" fill="#2F2E41"/>
<path d="M92.3564 81.7988C91.2497 80.0376 91.7873 77.7103 93.558 76.6095C93.7477 76.4837 93.9374 76.3894 94.1588 76.3265L112.245 30.5035L119.297 34.6864L99.218 78.6538C99.8504 80.6352 98.7753 82.7738 96.7832 83.4028C95.1074 83.9689 93.2734 83.277 92.3564 81.7988Z" fill="#FEB8B8"/>
<path d="M161.004 85.0696C158.917 84.9123 157.367 83.1197 157.494 81.0439C157.526 80.8238 157.557 80.6036 157.589 80.3835L130.901 38.9007L138.459 35.6927L162.427 77.6788C164.419 78.3078 165.525 80.4464 164.861 82.4278C164.355 84.1575 162.743 85.2268 161.004 85.0696Z" fill="#FEB8B8"/>
<path d="M112.435 77.2071L117.147 146.995L128.435 146.02L130.743 94.5361L137.036 116.646L150.632 117.621L145.257 73.9048L112.435 77.2071Z" fill="#2F2E41"/>
<path d="M139.059 113.343L137.067 116.646L123.123 126.207L133.083 131.49C133.083 131.49 152.34 120.923 150.664 117.621L139.059 113.343Z" fill="#2F2E41"/>
<path d="M102.57 48.9648L106.491 37.9572C108.261 33.0195 111.929 28.9625 116.704 26.7295C122.016 24.7796 127.803 24.4651 133.304 25.8174L134.727 26.1634C138.553 27.0754 142.095 28.8052 145.194 31.1954C147.628 33.0824 149.779 35.5041 150 38.083C150 38.083 150 38.083 150 38.1145C150.664 41.0393 151.012 56.2298 151.012 56.2298H145.099L146.047 76.7039L145.984 76.5466C145.984 76.5466 111.866 82.9625 111.866 79.6602V58.5257L111.17 50.8833L102.57 48.9648Z" fill="#CCCCCC"/>
<path d="M134.38 22.9869C139.601 22.9869 143.834 18.7768 143.834 13.5833C143.834 8.38983 139.601 4.17969 134.38 4.17969C129.158 4.17969 124.925 8.38983 124.925 13.5833C124.925 18.7768 129.158 22.9869 134.38 22.9869Z" fill="#FEB8B8"/>
<path d="M135.802 9.36897L143.138 9.65203C144.055 9.65203 145.067 9.62058 145.763 9.02302C146.806 8.14242 146.648 6.4441 146.079 5.1861C144.498 1.66367 140.988 0.405665 137.099 0.500016C133.21 0.594367 129.194 1.91528 127.107 5.15465C125.02 8.39402 124.451 12.514 125.241 16.2566C127.075 12.3567 130.87 9.71493 135.202 9.33752L135.802 9.36897Z" fill="#2F2E41"/>
<path d="M179.375 101.298L152.814 82.7737C152.308 82.4277 152.182 81.7044 152.53 81.2012L173.367 51.6065C173.715 51.1033 174.442 50.9775 174.948 51.3235L201.509 69.8477C202.015 70.1936 202.141 70.917 201.794 71.4202L180.956 101.015C180.608 101.549 179.913 101.675 179.375 101.298Z" fill="#3636F0"/>
<path d="M185.351 81.2326L169.762 70.3823C169.004 69.8477 168.814 68.8098 169.351 68.055C169.889 67.3002 170.932 67.1115 171.691 67.6462L187.28 78.4965C188.039 79.0311 188.229 80.069 187.691 80.8238C187.154 81.5786 186.11 81.7358 185.351 81.2326Z" fill="white"/>
<path d="M181.778 86.2961L166.189 75.4458C165.43 74.9111 165.241 73.8733 165.778 73.1185C166.316 72.3637 167.359 72.175 168.118 72.7096L183.707 83.5599C184.466 84.0946 184.656 85.1325 184.118 85.8873C183.58 86.6421 182.537 86.8308 181.778 86.2961Z" fill="white"/>
<path d="M178.173 91.4225L162.585 80.5721C161.826 80.0375 161.636 78.9996 162.174 78.2448C162.711 77.49 163.755 77.3013 164.514 77.836L180.102 88.6863C180.861 89.2209 181.051 90.2588 180.513 91.0136C179.976 91.7684 178.932 91.9571 178.173 91.4225Z" fill="white"/>
<path d="M185.32 71.1685L179.28 66.9542C178.521 66.4196 178.332 65.3817 178.869 64.6269C179.407 63.8721 180.45 63.6834 181.209 64.2181L187.248 68.4324C188.007 68.967 188.197 70.0049 187.66 70.7597C187.122 71.5145 186.079 71.7032 185.32 71.1685Z" fill="white"/>
</g>
<defs>
<clipPath id="clip0_2890_126339">
<rect width="291" height="162" fill="white" transform="translate(0.5 0.5)"/>
</clipPath>
</defs>
</svg>
