<?xml version="1.0" encoding="UTF-8"?>
<!DOCTYPE svg PUBLIC "-//W3C//DTD SVG 1.1//EN" "http://www.w3.org/Graphics/SVG/1.1/DTD/svg11.dtd">
<svg xmlns="http://www.w3.org/2000/svg" version="1.1" width="67px" height="67px" style="shape-rendering:geometricPrecision; text-rendering:geometricPrecision; image-rendering:optimizeQuality; fill-rule:evenodd; clip-rule:evenodd" xmlns:xlink="http://www.w3.org/1999/xlink">
<g><path style="opacity:0.718" fill="#449417" d="M 24.5,0.5 C 24.5,0.166667 24.5,-0.166667 24.5,-0.5C 30.1667,-0.5 35.8333,-0.5 41.5,-0.5C 43.2608,0.312714 44.9275,1.31271 46.5,2.5C 44.4352,2.48285 42.4352,2.14952 40.5,1.5C 40.1667,1.5 39.8333,1.5 39.5,1.5C 35.3656,0.515112 31.0323,0.181778 26.5,0.5C 25.8333,0.5 25.1667,0.5 24.5,0.5 Z"/></g>
<g><path style="opacity:1" fill="#cde070" d="M 26.5,0.5 C 31.0323,0.181778 35.3656,0.515112 39.5,1.5C 33.8864,1.07296 28.5531,1.73962 23.5,3.5C 21.8828,4.038 20.2161,4.37133 18.5,4.5C 20.9296,2.61854 23.5962,1.2852 26.5,0.5 Z"/></g>
<g><path style="opacity:1" fill="#b17244" d="M 39.5,1.5 C 39.8333,1.5 40.1667,1.5 40.5,1.5C 40.8333,2.16667 41.1667,2.83333 41.5,3.5C 37.3325,2.59522 33.3325,2.59522 29.5,3.5C 28.8333,3.5 28.5,3.83333 28.5,4.5C 28.1667,4.5 27.8333,4.5 27.5,4.5C 26.4324,3.56552 25.099,3.23219 23.5,3.5C 28.5531,1.73962 33.8864,1.07296 39.5,1.5 Z"/></g>
<g><path style="opacity:0.875" fill="#88b544" d="M 40.5,1.5 C 42.4352,2.14952 44.4352,2.48285 46.5,2.5C 49.9566,3.39383 52.9566,5.0605 55.5,7.5C 56.1667,9.16667 56.8333,10.8333 57.5,12.5C 56.078,11.075 54.4113,10.075 52.5,9.5C 51.4613,7.46888 49.7946,6.13554 47.5,5.5C 46.0821,3.69206 44.0821,3.02539 41.5,3.5C 41.1667,2.83333 40.8333,2.16667 40.5,1.5 Z"/></g>
<g><path style="opacity:1" fill="#b9908a" d="M 29.5,3.5 C 33.3325,2.59522 37.3325,2.59522 41.5,3.5C 41.5,3.83333 41.5,4.16667 41.5,4.5C 38.3521,4.40112 35.3521,4.73445 32.5,5.5C 31.2613,5.05758 30.2613,4.39092 29.5,3.5 Z"/></g>
<g><path style="opacity:1" fill="#b37d49" d="M 41.5,4.5 C 41.5,4.16667 41.5,3.83333 41.5,3.5C 44.0821,3.02539 46.0821,3.69206 47.5,5.5C 45.5,5.16667 43.5,4.83333 41.5,4.5 Z"/></g>
<g><path style="opacity:1" fill="#53a037" d="M 24.5,0.5 C 25.1667,0.5 25.8333,0.5 26.5,0.5C 23.5962,1.2852 20.9296,2.61854 18.5,4.5C 16.9731,4.42702 15.9731,5.09368 15.5,6.5C 13.6854,7.62977 11.6854,8.29644 9.5,8.5C 13.5364,4.15339 18.5364,1.48672 24.5,0.5 Z"/></g>
<g><path style="opacity:1" fill="#a38e93" d="M 27.5,4.5 C 25.4163,6.30286 23.2496,7.30286 21,7.5C 20.5357,6.90558 20.369,6.23891 20.5,5.5C 22.8056,5.00745 25.139,4.67412 27.5,4.5 Z"/></g>
<g><path style="opacity:1" fill="#f4eaed" d="M 28.5,4.5 C 28.5,3.83333 28.8333,3.5 29.5,3.5C 30.2613,4.39092 31.2613,5.05758 32.5,5.5C 35.3521,4.73445 38.3521,4.40112 41.5,4.5C 41.5569,5.60895 41.8902,6.60895 42.5,7.5C 40.1256,6.31388 37.7922,6.31388 35.5,7.5C 33.0259,6.89526 30.6926,5.89526 28.5,4.5 Z"/></g>
<g><path style="opacity:1" fill="#b89195" d="M 41.5,4.5 C 43.5,4.83333 45.5,5.16667 47.5,5.5C 49.0311,6.92454 48.6977,7.59121 46.5,7.5C 45.1667,7.5 43.8333,7.5 42.5,7.5C 41.8902,6.60895 41.5569,5.60895 41.5,4.5 Z"/></g>
<g><path style="opacity:1" fill="#c58861" d="M 23.5,3.5 C 25.099,3.23219 26.4324,3.56552 27.5,4.5C 25.139,4.67412 22.8056,5.00745 20.5,5.5C 19.2905,5.93205 18.2905,6.59872 17.5,7.5C 16.791,8.40397 15.791,8.73731 14.5,8.5C 14.8333,7.83333 15.1667,7.16667 15.5,6.5C 15.9731,5.09368 16.9731,4.42702 18.5,4.5C 20.2161,4.37133 21.8828,4.038 23.5,3.5 Z"/></g>
<g><path style="opacity:1" fill="#f5e4ed" d="M 27.5,4.5 C 27.8333,4.5 28.1667,4.5 28.5,4.5C 27.9285,6.36002 27.9285,8.02669 28.5,9.5C 28.1667,9.5 27.8333,9.5 27.5,9.5C 26.8485,8.90935 26.1818,8.24269 25.5,7.5C 23.9246,8.45645 22.258,9.12312 20.5,9.5C 19.609,10.1098 18.609,10.4431 17.5,10.5C 17.9528,9.54163 18.6195,8.7083 19.5,8C 18.9056,7.53566 18.2389,7.36899 17.5,7.5C 18.2905,6.59872 19.2905,5.93205 20.5,5.5C 20.369,6.23891 20.5357,6.90558 21,7.5C 23.2496,7.30286 25.4163,6.30286 27.5,4.5 Z"/></g>
<g><path style="opacity:1" fill="#c7b4b8" d="M 42.5,7.5 C 42.5,7.83333 42.5,8.16667 42.5,8.5C 42.5,9.16667 42.5,9.83333 42.5,10.5C 40.5648,9.85048 38.5648,9.51715 36.5,9.5C 36.1667,8.83333 35.8333,8.16667 35.5,7.5C 37.7922,6.31388 40.1256,6.31388 42.5,7.5 Z"/></g>
<g><path style="opacity:1" fill="#b17251" d="M 47.5,5.5 C 49.7946,6.13554 51.4613,7.46888 52.5,9.5C 51.1667,9.16667 49.8333,8.83333 48.5,8.5C 47.5084,8.67158 46.8417,8.33825 46.5,7.5C 48.6977,7.59121 49.0311,6.92454 47.5,5.5 Z"/></g>
<g><path style="opacity:1" fill="#a79698" d="M 28.5,4.5 C 30.6926,5.89526 33.0259,6.89526 35.5,7.5C 35.8333,8.16667 36.1667,8.83333 36.5,9.5C 33.8333,9.5 31.1667,9.5 28.5,9.5C 27.9285,8.02669 27.9285,6.36002 28.5,4.5 Z"/></g>
<g><path style="opacity:1" fill="#dbcbd0" d="M 42.5,8.5 C 42.5,8.16667 42.5,7.83333 42.5,7.5C 43.8333,7.5 45.1667,7.5 46.5,7.5C 46.8417,8.33825 47.5084,8.67158 48.5,8.5C 49.8333,10.1667 51.1667,11.8333 52.5,13.5C 52.2178,14.7777 51.5511,15.7777 50.5,16.5C 50.1667,16.5 49.8333,16.5 49.5,16.5C 48.674,14.7356 47.3407,13.4023 45.5,12.5C 46.0906,11.8485 46.7573,11.1818 47.5,10.5C 45.8614,9.67806 44.1947,9.01139 42.5,8.5 Z"/></g>
<g><path style="opacity:0.812" fill="#a5c054" d="M 15.5,6.5 C 15.1667,7.16667 14.8333,7.83333 14.5,8.5C 13.8333,8.5 13.5,8.83333 13.5,9.5C 11.1667,9.83333 9.83333,11.1667 9.5,13.5C 8.5,14.1667 7.5,14.8333 6.5,15.5C 7.62977,13.6854 8.29644,11.6854 8.5,9.5C 8.5,8.83333 8.83333,8.5 9.5,8.5C 11.6854,8.29644 13.6854,7.62977 15.5,6.5 Z"/></g>
<g><path style="opacity:1" fill="#a26c35" d="M 13.5,9.5 C 13.1667,10.1667 12.8333,10.8333 12.5,11.5C 11.5,12.1667 10.5,12.8333 9.5,13.5C 9.83333,11.1667 11.1667,9.83333 13.5,9.5 Z"/></g>
<g><path style="opacity:1" fill="#ae8d8d" d="M 17.5,7.5 C 18.2389,7.36899 18.9056,7.53566 19.5,8C 18.6195,8.7083 17.9528,9.54163 17.5,10.5C 15.629,10.8588 14.129,11.8588 13,13.5C 12.5357,12.9056 12.369,12.2389 12.5,11.5C 12.8333,10.8333 13.1667,10.1667 13.5,9.5C 13.5,8.83333 13.8333,8.5 14.5,8.5C 15.791,8.73731 16.791,8.40397 17.5,7.5 Z"/></g>
<g><path style="opacity:1" fill="#938888" d="M 27.5,9.5 C 27.5,9.83333 27.5,10.1667 27.5,10.5C 26.8333,10.5 26.5,10.8333 26.5,11.5C 25.209,11.2627 24.209,11.596 23.5,12.5C 22.8333,12.5 22.1667,12.5 21.5,12.5C 20.8902,11.609 20.5569,10.609 20.5,9.5C 22.258,9.12312 23.9246,8.45645 25.5,7.5C 26.1818,8.24269 26.8485,8.90935 27.5,9.5 Z"/></g>
<g><path style="opacity:1" fill="#606f77" d="M 27.5,10.5 C 27.5,10.1667 27.5,9.83333 27.5,9.5C 27.8333,9.5 28.1667,9.5 28.5,9.5C 31.1667,9.5 33.8333,9.5 36.5,9.5C 38.5648,9.51715 40.5648,9.85048 42.5,10.5C 42.5,10.8333 42.5,11.1667 42.5,11.5C 41.8333,11.5 41.1667,11.5 40.5,11.5C 40.1667,11.5 39.8333,11.5 39.5,11.5C 35.5331,10.9678 31.5331,10.6344 27.5,10.5 Z"/></g>
<g><path style="opacity:1" fill="#b1a1ae" d="M 42.5,8.5 C 44.1947,9.01139 45.8614,9.67806 47.5,10.5C 46.7573,11.1818 46.0906,11.8485 45.5,12.5C 44.609,11.8902 43.609,11.5569 42.5,11.5C 42.5,11.1667 42.5,10.8333 42.5,10.5C 42.5,9.83333 42.5,9.16667 42.5,8.5 Z"/></g>
<g><path style="opacity:1" fill="#a78d88" d="M 48.5,8.5 C 49.8333,8.83333 51.1667,9.16667 52.5,9.5C 53.1667,10.5 53.8333,11.5 54.5,12.5C 54.5912,14.6977 53.9245,15.0311 52.5,13.5C 51.1667,11.8333 49.8333,10.1667 48.5,8.5 Z"/></g>
<g><path style="opacity:1" fill="#5696b1" d="M 39.5,11.5 C 39.8333,11.5 40.1667,11.5 40.5,11.5C 40.5,11.8333 40.5,12.1667 40.5,12.5C 36.5149,12.4399 34.8482,14.4399 35.5,18.5C 34.5489,17.0813 34.2155,15.4147 34.5,13.5C 35.7791,12.032 37.4458,11.3653 39.5,11.5 Z"/></g>
<g><path style="opacity:1" fill="#60a63f" d="M 55.5,7.5 C 58.9331,10.6012 61.5998,14.2679 63.5,18.5C 63.5,19.1667 63.5,19.8333 63.5,20.5C 62.8333,19.8333 62.1667,19.1667 61.5,18.5C 60.0937,18.0269 59.427,17.0269 59.5,15.5C 59.573,13.9731 58.9063,12.9731 57.5,12.5C 56.8333,10.8333 56.1667,9.16667 55.5,7.5 Z"/></g>
<g><path style="opacity:1" fill="#7fb2dc" d="M 23.5,12.5 C 24.8333,12.5 26.1667,12.5 27.5,12.5C 27.6287,14.2161 27.962,15.8828 28.5,17.5C 27.609,18.1098 26.609,18.4431 25.5,18.5C 24.0689,18.1193 23.2355,17.1193 23,15.5C 22.7216,16.4158 22.2216,17.0825 21.5,17.5C 21.3915,15.4862 22.0582,13.8195 23.5,12.5 Z"/></g>
<g><path style="opacity:1" fill="#5c747b" d="M 40.5,12.5 C 40.5,12.1667 40.5,11.8333 40.5,11.5C 41.1667,11.5 41.8333,11.5 42.5,11.5C 43.609,11.5569 44.609,11.8902 45.5,12.5C 47.3407,13.4023 48.674,14.7356 49.5,16.5C 48.8333,16.1667 48.1667,15.8333 47.5,15.5C 47.1667,15.5 46.8333,15.5 46.5,15.5C 45.089,13.461 43.089,12.461 40.5,12.5 Z"/></g>
<g><path style="opacity:1" fill="#d1c869" d="M 57.5,12.5 C 58.9063,12.9731 59.573,13.9731 59.5,15.5C 58.0937,15.0269 57.427,14.0269 57.5,12.5 Z"/></g>
<g><path style="opacity:1" fill="#978e85" d="M 21.5,12.5 C 20.027,14.3947 18.3603,16.0613 16.5,17.5C 15.8333,17.8333 15.1667,18.1667 14.5,18.5C 15.3629,17.0597 15.3629,15.7264 14.5,14.5C 16.1295,11.4015 18.4629,10.7349 21.5,12.5 Z"/></g>
<g><path style="opacity:1" fill="#71a5c3" d="M 23.5,12.5 C 24.209,11.596 25.209,11.2627 26.5,11.5C 27.8333,11.5 29.1667,11.5 30.5,11.5C 30.9746,14.0821 30.3079,16.0821 28.5,17.5C 27.962,15.8828 27.6287,14.2161 27.5,12.5C 26.1667,12.5 24.8333,12.5 23.5,12.5 Z"/></g>
<g><path style="opacity:1" fill="#759aa9" d="M 26.5,11.5 C 26.5,10.8333 26.8333,10.5 27.5,10.5C 31.5331,10.6344 35.5331,10.9678 39.5,11.5C 37.4458,11.3653 35.7791,12.032 34.5,13.5C 31.4008,14.5327 30.7341,16.5327 32.5,19.5C 30.3441,17.8823 28.6774,18.2157 27.5,20.5C 26.9653,22.4456 25.632,23.4456 23.5,23.5C 23.4431,22.391 23.1098,21.391 22.5,20.5C 23.791,20.7373 24.791,20.404 25.5,19.5C 25.5,19.1667 25.5,18.8333 25.5,18.5C 26.609,18.4431 27.609,18.1098 28.5,17.5C 30.3079,16.0821 30.9746,14.0821 30.5,11.5C 29.1667,11.5 27.8333,11.5 26.5,11.5 Z"/></g>
<g><path style="opacity:1" fill="#f2eff1" d="M 54.5,12.5 C 56.6734,13.166 57.0067,14.3326 55.5,16C 56.0439,17.585 56.7106,19.085 57.5,20.5C 56.209,20.2627 55.209,20.596 54.5,21.5C 53.1667,19.8333 51.8333,18.1667 50.5,16.5C 51.5511,15.7777 52.2178,14.7777 52.5,13.5C 53.9245,15.0311 54.5912,14.6977 54.5,12.5 Z"/></g>
<g><path style="opacity:1" fill="#5ca343" d="M 8.5,9.5 C 8.29644,11.6854 7.62977,13.6854 6.5,15.5C 3.88717,18.6448 2.2205,22.3114 1.5,26.5C 1.5,26.8333 1.5,27.1667 1.5,27.5C 0.833333,27.1667 0.166667,26.8333 -0.5,26.5C -0.5,25.8333 -0.5,25.1667 -0.5,24.5C 1.73207,19.0353 4.73207,14.0353 8.5,9.5 Z"/></g>
<g><path style="opacity:1" fill="#a47258" d="M 9.5,13.5 C 9.57735,14.7498 10.244,15.5831 11.5,16C 9.88961,17.108 8.22295,17.608 6.5,17.5C 6.5,16.8333 6.5,16.1667 6.5,15.5C 7.5,14.8333 8.5,14.1667 9.5,13.5 Z"/></g>
<g><path style="opacity:1" fill="#5796c2" d="M 40.5,12.5 C 43.089,12.461 45.089,13.461 46.5,15.5C 44.2532,15.0847 42.0865,14.4181 40,13.5C 39.1667,13.8333 38.3333,14.1667 37.5,14.5C 39.5771,16.0818 41.9104,17.0818 44.5,17.5C 45.0431,17.56 45.3764,17.8933 45.5,18.5C 44.3984,19.1757 43.3984,19.8423 42.5,20.5C 40.7839,20.3713 39.1172,20.038 37.5,19.5C 36.8333,19.5 36.1667,19.5 35.5,19.5C 35.5,19.1667 35.5,18.8333 35.5,18.5C 34.8482,14.4399 36.5149,12.4399 40.5,12.5 Z"/></g>
<g><path style="opacity:1" fill="#5097cb" d="M 46.5,15.5 C 46.8333,15.5 47.1667,15.5 47.5,15.5C 47.5,15.8333 47.5,16.1667 47.5,16.5C 46.209,16.2627 45.209,16.596 44.5,17.5C 41.9104,17.0818 39.5771,16.0818 37.5,14.5C 38.3333,14.1667 39.1667,13.8333 40,13.5C 42.0865,14.4181 44.2532,15.0847 46.5,15.5 Z"/></g>
<g><path style="opacity:1" fill="#ebe1df" d="M 20.5,9.5 C 20.5569,10.609 20.8902,11.609 21.5,12.5C 18.4629,10.7349 16.1295,11.4015 14.5,14.5C 15.3629,15.7264 15.3629,17.0597 14.5,18.5C 13.8333,18.8333 13.1667,19.1667 12.5,19.5C 10.4862,19.3915 8.81953,20.0582 7.5,21.5C 7.16667,20.1667 6.83333,18.8333 6.5,17.5C 8.22295,17.608 9.88961,17.108 11.5,16C 10.244,15.5831 9.57735,14.7498 9.5,13.5C 10.5,12.8333 11.5,12.1667 12.5,11.5C 12.369,12.2389 12.5357,12.9056 13,13.5C 14.129,11.8588 15.629,10.8588 17.5,10.5C 18.609,10.4431 19.609,10.1098 20.5,9.5 Z"/></g>
<g><path style="opacity:1" fill="#96b8ce" d="M 21.5,12.5 C 22.1667,12.5 22.8333,12.5 23.5,12.5C 22.0582,13.8195 21.3915,15.4862 21.5,17.5C 19.8333,17.5 18.1667,17.5 16.5,17.5C 18.3603,16.0613 20.027,14.3947 21.5,12.5 Z"/></g>
<g><path style="opacity:1" fill="#8ba9d4" d="M 25.5,18.5 C 25.5,18.8333 25.5,19.1667 25.5,19.5C 22.5,19.5 19.5,19.5 16.5,19.5C 16.5,18.8333 16.5,18.1667 16.5,17.5C 18.1667,17.5 19.8333,17.5 21.5,17.5C 22.2216,17.0825 22.7216,16.4158 23,15.5C 23.2355,17.1193 24.0689,18.1193 25.5,18.5 Z"/></g>
<g><path style="opacity:1" fill="#88b0bb" d="M 34.5,13.5 C 34.2155,15.4147 34.5489,17.0813 35.5,18.5C 35.5,18.8333 35.5,19.1667 35.5,19.5C 34.5,19.5 33.5,19.5 32.5,19.5C 30.7341,16.5327 31.4008,14.5327 34.5,13.5 Z"/></g>
<g><path style="opacity:1" fill="#b08272" d="M 52.5,9.5 C 54.4113,10.075 56.078,11.075 57.5,12.5C 57.427,14.0269 58.0937,15.0269 59.5,15.5C 59.427,17.0269 60.0937,18.0269 61.5,18.5C 61.5,19.5 61.5,20.5 61.5,21.5C 60.7784,21.0825 60.2784,20.4158 60,19.5C 59.7216,20.4158 59.2216,21.0825 58.5,21.5C 57.8333,21.5 57.5,21.1667 57.5,20.5C 56.7106,19.085 56.0439,17.585 55.5,16C 57.0067,14.3326 56.6734,13.166 54.5,12.5C 53.8333,11.5 53.1667,10.5 52.5,9.5 Z"/></g>
<g><path style="opacity:1" fill="#cbb360" d="M 6.5,15.5 C 6.5,16.1667 6.5,16.8333 6.5,17.5C 5.32627,18.5137 4.6596,19.847 4.5,21.5C 4.73731,22.791 4.40397,23.791 3.5,24.5C 2.83333,25.1667 2.16667,25.8333 1.5,26.5C 2.2205,22.3114 3.88717,18.6448 6.5,15.5 Z"/></g>
<g><path style="opacity:1" fill="#bbc4ce" d="M 32.5,19.5 C 33.5,19.5 34.5,19.5 35.5,19.5C 36.1667,19.5 36.8333,19.5 37.5,19.5C 37.8333,20.1667 38.1667,20.8333 38.5,21.5C 37.8333,21.5 37.1667,21.5 36.5,21.5C 34.1707,19.9976 32.8373,20.6643 32.5,23.5C 31.1001,22.9002 30.1001,21.9002 29.5,20.5C 28.8333,20.5 28.1667,20.5 27.5,20.5C 28.6774,18.2157 30.3441,17.8823 32.5,19.5 Z"/></g>
<g><path style="opacity:1" fill="#828376" d="M 14.5,18.5 C 13.8333,20.1667 13.1667,21.8333 12.5,23.5C 12.1667,23.5 11.8333,23.5 11.5,23.5C 11.4326,22.0413 11.7659,20.7079 12.5,19.5C 13.1667,19.1667 13.8333,18.8333 14.5,18.5 Z"/></g>
<g><path style="opacity:1" fill="#c4cbcf" d="M 16.5,17.5 C 16.5,18.1667 16.5,18.8333 16.5,19.5C 16.5,20.1667 16.5,20.8333 16.5,21.5C 15.5,22.1667 14.5,22.8333 13.5,23.5C 13.1667,23.5 12.8333,23.5 12.5,23.5C 13.1667,21.8333 13.8333,20.1667 14.5,18.5C 15.1667,18.1667 15.8333,17.8333 16.5,17.5 Z"/></g>
<g><path style="opacity:1" fill="#535b79" d="M 16.5,19.5 C 19.5,19.5 22.5,19.5 25.5,19.5C 24.791,20.404 23.791,20.7373 22.5,20.5C 20.9582,21.3007 19.2915,21.634 17.5,21.5C 17.1667,21.5 16.8333,21.5 16.5,21.5C 16.5,20.8333 16.5,20.1667 16.5,19.5 Z"/></g>
<g><path style="opacity:1" fill="#4a7eb6" d="M 44.5,17.5 C 45.209,16.596 46.209,16.2627 47.5,16.5C 47.5,17.8333 47.5,19.1667 47.5,20.5C 48.791,20.2627 49.791,20.596 50.5,21.5C 48.1667,21.5 45.8333,21.5 43.5,21.5C 43.5,20.8333 43.1667,20.5 42.5,20.5C 43.3984,19.8423 44.3984,19.1757 45.5,18.5C 45.3764,17.8933 45.0431,17.56 44.5,17.5 Z"/></g>
<g><path style="opacity:1" fill="#f1f5eb" d="M 12.5,19.5 C 11.7659,20.7079 11.4326,22.0413 11.5,23.5C 10.8333,24.1667 10.1667,24.8333 9.5,25.5C 8.83333,24.8333 8.16667,24.1667 7.5,23.5C 7.5,22.8333 7.5,22.1667 7.5,21.5C 8.81953,20.0582 10.4862,19.3915 12.5,19.5 Z"/></g>
<g><path style="opacity:1" fill="#f2f5ec" d="M 57.5,20.5 C 57.5,21.1667 57.8333,21.5 58.5,21.5C 58.3253,23.6208 58.6586,25.6208 59.5,27.5C 58.1667,27.5 57.5,28.1667 57.5,29.5C 57.1667,29.5 56.8333,29.5 56.5,29.5C 56.4162,26.6726 55.7496,24.006 54.5,21.5C 55.209,20.596 56.209,20.2627 57.5,20.5 Z"/></g>
<g><path style="opacity:1" fill="#569f41" d="M 63.5,18.5 C 64.5,20.5 65.5,22.5 66.5,24.5C 66.5,30.1667 66.5,35.8333 66.5,41.5C 66.1667,41.5 65.8333,41.5 65.5,41.5C 65.5,40.8333 65.5,40.1667 65.5,39.5C 65.8494,33.0322 65.1827,26.6989 63.5,20.5C 63.5,19.8333 63.5,19.1667 63.5,18.5 Z"/></g>
<g><path style="opacity:1" fill="#92bcda" d="M 22.5,20.5 C 23.1098,21.391 23.4431,22.391 23.5,23.5C 22.5084,23.3284 21.8417,23.6618 21.5,24.5C 20.0387,25.6857 18.7054,25.6857 17.5,24.5C 17.5,23.5 17.5,22.5 17.5,21.5C 19.2915,21.634 20.9582,21.3007 22.5,20.5 Z"/></g>
<g><path style="opacity:1" fill="#9a9d9b" d="M 27.5,20.5 C 28.1667,20.5 28.8333,20.5 29.5,20.5C 29.8432,22.4832 29.1765,23.8166 27.5,24.5C 27.5654,24.0618 27.3988,23.7284 27,23.5C 25.9127,25.8142 24.0794,27.1476 21.5,27.5C 21.5,26.5 21.5,25.5 21.5,24.5C 21.8417,23.6618 22.5084,23.3284 23.5,23.5C 25.632,23.4456 26.9653,22.4456 27.5,20.5 Z"/></g>
<g><path style="opacity:1" fill="#5e91b6" d="M 47.5,15.5 C 48.1667,15.8333 48.8333,16.1667 49.5,16.5C 51.0435,18.9278 52.0435,21.5944 52.5,24.5C 51.8333,24.5 51.1667,24.5 50.5,24.5C 50.5,23.5 50.5,22.5 50.5,21.5C 49.791,20.596 48.791,20.2627 47.5,20.5C 47.5,19.1667 47.5,17.8333 47.5,16.5C 47.5,16.1667 47.5,15.8333 47.5,15.5 Z"/></g>
<g><path style="opacity:1" fill="#668289" d="M 49.5,16.5 C 49.8333,16.5 50.1667,16.5 50.5,16.5C 51.8333,18.1667 53.1667,19.8333 54.5,21.5C 55.7496,24.006 56.4162,26.6726 56.5,29.5C 56.8016,32.0593 56.4682,34.3926 55.5,36.5C 55.6646,33.4816 55.498,30.4816 55,27.5C 54.7645,25.8807 53.9311,24.8807 52.5,24.5C 52.0435,21.5944 51.0435,18.9278 49.5,16.5 Z"/></g>
<g><path style="opacity:1" fill="#967f78" d="M 6.5,17.5 C 6.83333,18.8333 7.16667,20.1667 7.5,21.5C 7.5,22.1667 7.5,22.8333 7.5,23.5C 7.16667,24.8333 6.83333,26.1667 6.5,27.5C 5.33986,25.8308 5.33986,23.9975 6.5,22C 6.31658,20.3164 5.64991,20.1498 4.5,21.5C 4.6596,19.847 5.32627,18.5137 6.5,17.5 Z"/></g>
<g><path style="opacity:1" fill="#f8f5f2" d="M 7.5,23.5 C 8.16667,24.1667 8.83333,24.8333 9.5,25.5C 9.76781,27.099 9.43448,28.4324 8.5,29.5C 7.83333,29.5 7.16667,29.5 6.5,29.5C 6.5,28.8333 6.5,28.1667 6.5,27.5C 6.83333,26.1667 7.16667,24.8333 7.5,23.5 Z"/></g>
<g><path style="opacity:1" fill="#74a1be" d="M 37.5,19.5 C 39.1172,20.038 40.7839,20.3713 42.5,20.5C 42.5,22.5 42.5,24.5 42.5,26.5C 44.1788,26.2852 45.1788,26.9519 45.5,28.5C 44.1667,28.1667 42.8333,27.8333 41.5,27.5C 41.5,25.5 41.5,23.5 41.5,21.5C 40.5,21.5 39.5,21.5 38.5,21.5C 38.1667,20.8333 37.8333,20.1667 37.5,19.5 Z"/></g>
<g><path style="opacity:1" fill="#ddc4c8" d="M 61.5,21.5 C 61.6287,23.2161 61.962,24.8828 62.5,26.5C 61.5416,26.9528 60.7083,27.6195 60,28.5C 59.6012,28.2716 59.4346,27.9382 59.5,27.5C 58.6586,25.6208 58.3253,23.6208 58.5,21.5C 59.2216,21.0825 59.7216,20.4158 60,19.5C 60.2784,20.4158 60.7784,21.0825 61.5,21.5 Z"/></g>
<g><path style="opacity:1" fill="#b9d2e5" d="M 16.5,21.5 C 16.8333,21.5 17.1667,21.5 17.5,21.5C 17.5,22.5 17.5,23.5 17.5,24.5C 16.8333,25.1667 16.1667,25.8333 15.5,26.5C 14.4489,25.7777 13.7822,24.7777 13.5,23.5C 14.5,22.8333 15.5,22.1667 16.5,21.5 Z"/></g>
<g><path style="opacity:1" fill="#82817b" d="M 29.5,20.5 C 30.1001,21.9002 31.1001,22.9002 32.5,23.5C 33.8333,23.5 34.5,24.1667 34.5,25.5C 33.4168,25.4606 32.4168,25.1272 31.5,24.5C 30.7022,26.0777 30.2022,27.7444 30,29.5C 29.3292,28.7476 28.4959,28.4142 27.5,28.5C 27.5,27.1667 27.5,25.8333 27.5,24.5C 29.1765,23.8166 29.8432,22.4832 29.5,20.5 Z"/></g>
<g><path style="opacity:1" fill="#898b85" d="M 36.5,21.5 C 36.9371,23.0744 37.9371,24.2411 39.5,25C 38.9056,25.4643 38.2389,25.631 37.5,25.5C 36.7978,24.8843 35.7978,24.8843 34.5,25.5C 34.5,24.1667 33.8333,23.5 32.5,23.5C 32.8373,20.6643 34.1707,19.9976 36.5,21.5 Z"/></g>
<g><path style="opacity:1" fill="#629fcc" d="M 42.5,20.5 C 43.1667,20.5 43.5,20.8333 43.5,21.5C 43.4609,23.3588 44.2942,24.6921 46,25.5C 46.4935,27.1341 46.6602,28.8008 46.5,30.5C 46.5,30.8333 46.5,31.1667 46.5,31.5C 46.1667,31.5 45.8333,31.5 45.5,31.5C 45.5,30.5 45.5,29.5 45.5,28.5C 45.1788,26.9519 44.1788,26.2852 42.5,26.5C 42.5,24.5 42.5,22.5 42.5,20.5 Z"/></g>
<g><path style="opacity:1" fill="#d4d264" d="M 61.5,18.5 C 62.1667,19.1667 62.8333,19.8333 63.5,20.5C 65.1827,26.6989 65.8494,33.0322 65.5,39.5C 65.1667,39.5 64.8333,39.5 64.5,39.5C 64.6655,35.4862 64.4988,31.4862 64,27.5C 63.7599,25.1484 62.9265,23.1484 61.5,21.5C 61.5,20.5 61.5,19.5 61.5,18.5 Z"/></g>
<g><path style="opacity:1" fill="#abc5d5" d="M 17.5,24.5 C 18.7054,25.6857 20.0387,25.6857 21.5,24.5C 21.5,25.5 21.5,26.5 21.5,27.5C 21.1667,27.5 20.8333,27.5 20.5,27.5C 20.44,26.9569 20.1067,26.6236 19.5,26.5C 17.0487,28.7902 17.0487,30.7902 19.5,32.5C 20.1667,32.5 20.5,32.8333 20.5,33.5C 18.8333,33.5 17.1667,33.5 15.5,33.5C 16.1157,32.2022 16.1157,31.2022 15.5,30.5C 15.5,29.1667 15.5,27.8333 15.5,26.5C 16.1667,25.8333 16.8333,25.1667 17.5,24.5 Z"/></g>
<g><path style="opacity:1" fill="#cac9c3" d="M 27.5,24.5 C 27.5,25.8333 27.5,27.1667 27.5,28.5C 27.1667,28.5 26.8333,28.5 26.5,28.5C 25.8501,28.1961 25.1835,27.8627 24.5,27.5C 23.3331,29.0792 21.9998,30.4125 20.5,31.5C 19.3143,30.0387 19.3143,28.7054 20.5,27.5C 20.8333,27.5 21.1667,27.5 21.5,27.5C 24.0794,27.1476 25.9127,25.8142 27,23.5C 27.3988,23.7284 27.5654,24.0618 27.5,24.5 Z"/></g>
<g><path style="opacity:1" fill="#bfbbb3" d="M 34.5,25.5 C 35.7978,24.8843 36.7978,24.8843 37.5,25.5C 37.5,25.8333 37.5,26.1667 37.5,26.5C 35.5648,27.1495 33.5648,27.4828 31.5,27.5C 31.5,28.8333 31.5,30.1667 31.5,31.5C 29.5,31.5 27.5,31.5 25.5,31.5C 25.5569,30.391 25.8902,29.391 26.5,28.5C 26.8333,28.5 27.1667,28.5 27.5,28.5C 28.4959,28.4142 29.3292,28.7476 30,29.5C 30.2022,27.7444 30.7022,26.0777 31.5,24.5C 32.4168,25.1272 33.4168,25.4606 34.5,25.5 Z"/></g>
<g><path style="opacity:1" fill="#acb4b2" d="M 36.5,21.5 C 37.1667,21.5 37.8333,21.5 38.5,21.5C 39.5,21.5 40.5,21.5 41.5,21.5C 41.5,23.5 41.5,25.5 41.5,27.5C 41.4208,28.9305 41.7542,30.2638 42.5,31.5C 41.675,32.3857 40.675,32.719 39.5,32.5C 39.5,31.5 39.5,30.5 39.5,29.5C 39.7148,27.8212 39.0481,26.8212 37.5,26.5C 37.5,26.1667 37.5,25.8333 37.5,25.5C 38.2389,25.631 38.9056,25.4643 39.5,25C 37.9371,24.2411 36.9371,23.0744 36.5,21.5 Z"/></g>
<g><path style="opacity:1" fill="#5d9dd7" d="M 43.5,21.5 C 45.8333,21.5 48.1667,21.5 50.5,21.5C 50.5,22.5 50.5,23.5 50.5,24.5C 50.5,25.1667 50.5,25.8333 50.5,26.5C 49.5655,27.5676 49.2322,28.901 49.5,30.5C 48.5,30.5 47.5,30.5 46.5,30.5C 46.6602,28.8008 46.4935,27.1341 46,25.5C 44.2942,24.6921 43.4609,23.3588 43.5,21.5 Z"/></g>
<g><path style="opacity:1" fill="#5c9fd1" d="M 50.5,26.5 C 51.7199,28.2837 51.7199,29.9504 50.5,31.5C 49.1667,31.5 47.8333,31.5 46.5,31.5C 46.5,31.1667 46.5,30.8333 46.5,30.5C 47.5,30.5 48.5,30.5 49.5,30.5C 49.2322,28.901 49.5655,27.5676 50.5,26.5 Z"/></g>
<g><path style="opacity:1" fill="#f6dcd2" d="M 6.5,27.5 C 6.5,28.1667 6.5,28.8333 6.5,29.5C 5.39105,29.5569 4.39105,29.8902 3.5,30.5C 3.5,29.8333 3.5,29.1667 3.5,28.5C 3.5,27.1667 3.5,25.8333 3.5,24.5C 4.40397,23.791 4.73731,22.791 4.5,21.5C 5.64991,20.1498 6.31658,20.3164 6.5,22C 5.33986,23.9975 5.33986,25.8308 6.5,27.5 Z"/></g>
<g><path style="opacity:1" fill="#adc3e0" d="M 11.5,23.5 C 11.8333,23.5 12.1667,23.5 12.5,23.5C 12.8333,23.5 13.1667,23.5 13.5,23.5C 13.7822,24.7777 14.4489,25.7777 15.5,26.5C 15.5,27.8333 15.5,29.1667 15.5,30.5C 14.3951,29.3995 13.0618,28.7329 11.5,28.5C 11.5,28.1667 11.5,27.8333 11.5,27.5C 11.5,26.1667 11.5,24.8333 11.5,23.5 Z"/></g>
<g><path style="opacity:1" fill="#59a6d3" d="M 50.5,26.5 C 53.4507,27.8094 54.7841,30.1427 54.5,33.5C 53.7281,34.6935 52.7281,35.6935 51.5,36.5C 51.634,34.7085 51.3007,33.0418 50.5,31.5C 51.7199,29.9504 51.7199,28.2837 50.5,26.5 Z"/></g>
<g><path style="opacity:1" fill="#faf0dd" d="M 62.5,26.5 C 62.5,27.1667 62.5,27.8333 62.5,28.5C 61.4324,29.4345 60.099,29.7678 58.5,29.5C 58.5,30.8333 58.5,32.1667 58.5,33.5C 60.099,33.2322 61.4324,33.5655 62.5,34.5C 60.8333,34.5 59.1667,34.5 57.5,34.5C 57.5,32.8333 57.5,31.1667 57.5,29.5C 57.5,28.1667 58.1667,27.5 59.5,27.5C 59.4346,27.9382 59.6012,28.2716 60,28.5C 60.7083,27.6195 61.5416,26.9528 62.5,26.5 Z"/></g>
<g><path style="opacity:1" fill="#70b0cd" d="M 50.5,24.5 C 51.1667,24.5 51.8333,24.5 52.5,24.5C 53.9311,24.8807 54.7645,25.8807 55,27.5C 55.498,30.4816 55.6646,33.4816 55.5,36.5C 55.3259,38.861 54.9926,41.1944 54.5,43.5C 54.1667,43.5 53.8333,43.5 53.5,43.5C 52.8333,43.5 52.1667,43.5 51.5,43.5C 51.5,42.1667 51.5,40.8333 51.5,39.5C 52.5,39.5 53.5,39.5 54.5,39.5C 54.5,37.5 54.5,35.5 54.5,33.5C 54.7841,30.1427 53.4507,27.8094 50.5,26.5C 50.5,25.8333 50.5,25.1667 50.5,24.5 Z"/></g>
<g><path style="opacity:1" fill="#8a8e86" d="M 11.5,23.5 C 11.5,24.8333 11.5,26.1667 11.5,27.5C 10.838,29.3035 10.5046,31.3035 10.5,33.5C 10.2378,37.1186 10.9045,39.7853 12.5,41.5C 12.8333,41.5 13.1667,41.5 13.5,41.5C 13.0181,44.8306 14.0181,47.4973 16.5,49.5C 16.5,49.8333 16.5,50.1667 16.5,50.5C 14.5212,49.1879 12.8545,47.5212 11.5,45.5C 10.8333,43.5 10.1667,41.5 9.5,39.5C 8.67577,36.2356 8.34243,32.9023 8.5,29.5C 9.43448,28.4324 9.76781,27.099 9.5,25.5C 10.1667,24.8333 10.8333,24.1667 11.5,23.5 Z"/></g>
<g><path style="opacity:1" fill="#bed8f1" d="M 11.5,28.5 C 13.0618,28.7329 14.3951,29.3995 15.5,30.5C 16.1157,31.2022 16.1157,32.2022 15.5,33.5C 14.1667,33.5 12.8333,33.5 11.5,33.5C 11.5,31.8333 11.5,30.1667 11.5,28.5 Z"/></g>
<g><path style="opacity:1" fill="#9c9489" d="M 37.5,26.5 C 39.0481,26.8212 39.7148,27.8212 39.5,29.5C 38.5416,29.0472 37.7083,28.3805 37,27.5C 36.5065,29.1341 36.3398,30.8008 36.5,32.5C 35.8333,32.5 35.5,32.8333 35.5,33.5C 33.8333,33.5 32.1667,33.5 30.5,33.5C 30.1667,33.5 29.8333,33.5 29.5,33.5C 28.1667,32.8333 26.8333,32.1667 25.5,31.5C 27.5,31.5 29.5,31.5 31.5,31.5C 31.5,30.1667 31.5,28.8333 31.5,27.5C 33.5648,27.4828 35.5648,27.1495 37.5,26.5 Z"/></g>
<g><path style="opacity:1" fill="#ccbeb0" d="M 39.5,29.5 C 39.5,30.5 39.5,31.5 39.5,32.5C 38.5,32.5 37.5,32.5 36.5,32.5C 36.3398,30.8008 36.5065,29.1341 37,27.5C 37.7083,28.3805 38.5416,29.0472 39.5,29.5 Z"/></g>
<g><path style="opacity:1" fill="#e2c594" d="M 62.5,28.5 C 63.4794,31.6248 63.8128,34.9581 63.5,38.5C 63.1667,38.5 62.8333,38.5 62.5,38.5C 62.5,37.8333 62.5,37.1667 62.5,36.5C 62.5,35.8333 62.5,35.1667 62.5,34.5C 61.4324,33.5655 60.099,33.2322 58.5,33.5C 58.5,32.1667 58.5,30.8333 58.5,29.5C 60.099,29.7678 61.4324,29.4345 62.5,28.5 Z"/></g>
<g><path style="opacity:1" fill="#a96335" d="M 3.5,24.5 C 3.5,25.8333 3.5,27.1667 3.5,28.5C 2.83333,31.5 2.16667,34.5 1.5,37.5C 1.5,34.1667 1.5,30.8333 1.5,27.5C 1.5,27.1667 1.5,26.8333 1.5,26.5C 2.16667,25.8333 2.83333,25.1667 3.5,24.5 Z"/></g>
<g><path style="opacity:1" fill="#c7ba76" d="M 6.5,29.5 C 7.95357,32.3999 6.95357,33.7332 3.5,33.5C 3.5,32.5 3.5,31.5 3.5,30.5C 4.39105,29.8902 5.39105,29.5569 6.5,29.5 Z"/></g>
<g><path style="opacity:1" fill="#b1b4b5" d="M 20.5,27.5 C 19.3143,28.7054 19.3143,30.0387 20.5,31.5C 19.8333,31.5 19.5,31.8333 19.5,32.5C 17.0487,30.7902 17.0487,28.7902 19.5,26.5C 20.1067,26.6236 20.44,26.9569 20.5,27.5 Z"/></g>
<g><path style="opacity:1" fill="#838781" d="M 26.5,28.5 C 25.8902,29.391 25.5569,30.391 25.5,31.5C 26.8333,32.1667 28.1667,32.8333 29.5,33.5C 28.1667,33.5 26.8333,33.5 25.5,33.5C 23.8333,33.5 22.1667,33.5 20.5,33.5C 20.5,32.8333 20.1667,32.5 19.5,32.5C 19.5,31.8333 19.8333,31.5 20.5,31.5C 21.9998,30.4125 23.3331,29.0792 24.5,27.5C 25.1835,27.8627 25.8501,28.1961 26.5,28.5 Z"/></g>
<g><path style="opacity:1" fill="#a4621a" d="M 61.5,21.5 C 62.9265,23.1484 63.7599,25.1484 64,27.5C 64.4988,31.4862 64.6655,35.4862 64.5,39.5C 64.1667,39.5 63.8333,39.5 63.5,39.5C 63.5,39.1667 63.5,38.8333 63.5,38.5C 63.8128,34.9581 63.4794,31.6248 62.5,28.5C 62.5,27.8333 62.5,27.1667 62.5,26.5C 61.962,24.8828 61.6287,23.2161 61.5,21.5 Z"/></g>
<g><path style="opacity:1" fill="#7eba37" d="M -0.5,26.5 C 0.166667,26.8333 0.833333,27.1667 1.5,27.5C 1.5,30.8333 1.5,34.1667 1.5,37.5C 1.5,38.5 1.5,39.5 1.5,40.5C 1.5,41.8333 1.5,43.1667 1.5,44.5C 0.833333,43.5 0.166667,42.5 -0.5,41.5C -0.5,36.5 -0.5,31.5 -0.5,26.5 Z"/></g>
<g><path style="opacity:1" fill="#8ba1af" d="M 41.5,27.5 C 42.8333,27.8333 44.1667,28.1667 45.5,28.5C 45.5,29.5 45.5,30.5 45.5,31.5C 45.5,32.1667 45.5,32.8333 45.5,33.5C 43.5,33.5 41.5,33.5 39.5,33.5C 38.209,33.2627 37.209,33.596 36.5,34.5C 35.8333,34.5 35.5,34.1667 35.5,33.5C 35.5,32.8333 35.8333,32.5 36.5,32.5C 37.5,32.5 38.5,32.5 39.5,32.5C 40.675,32.719 41.675,32.3857 42.5,31.5C 41.7542,30.2638 41.4208,28.9305 41.5,27.5 Z"/></g>
<g><path style="opacity:1" fill="#6ba4c6" d="M 45.5,31.5 C 45.8333,31.5 46.1667,31.5 46.5,31.5C 47.8333,31.5 49.1667,31.5 50.5,31.5C 51.3007,33.0418 51.634,34.7085 51.5,36.5C 50.8333,36.5 50.5,36.8333 50.5,37.5C 49.0361,38.045 47.3694,38.045 45.5,37.5C 45.5,36.8333 45.8333,36.5 46.5,36.5C 47.8852,35.0527 47.5518,34.0527 45.5,33.5C 45.5,32.8333 45.5,32.1667 45.5,31.5 Z"/></g>
<g><path style="opacity:1" fill="#c2e0dd" d="M 30.5,33.5 C 32.1667,33.5 33.8333,33.5 35.5,33.5C 35.5,34.1667 35.8333,34.5 36.5,34.5C 36.5,34.8333 36.5,35.1667 36.5,35.5C 34.1256,36.6861 31.7922,36.6861 29.5,35.5C 29.8333,34.8333 30.1667,34.1667 30.5,33.5 Z"/></g>
<g><path style="opacity:1" fill="#f3e8d1" d="M 6.5,29.5 C 7.16667,29.5 7.83333,29.5 8.5,29.5C 8.34243,32.9023 8.67577,36.2356 9.5,39.5C 8.83333,39.5 8.16667,39.5 7.5,39.5C 7.84316,37.5168 7.17649,36.1834 5.5,35.5C 4.83333,35.5 4.16667,35.5 3.5,35.5C 3.5,34.8333 3.5,34.1667 3.5,33.5C 6.95357,33.7332 7.95357,32.3999 6.5,29.5 Z"/></g>
<g><path style="opacity:1" fill="#a7cae0" d="M 11.5,33.5 C 12.8333,33.5 14.1667,33.5 15.5,33.5C 17.1667,33.5 18.8333,33.5 20.5,33.5C 18.8333,34.1667 17.1667,34.8333 15.5,35.5C 16.1834,37.1765 17.5168,37.8432 19.5,37.5C 18.8333,38.1667 18.1667,38.8333 17.5,39.5C 16.1667,39.5 14.8333,39.5 13.5,39.5C 11.9192,37.8583 11.2525,35.8583 11.5,33.5 Z"/></g>
<g><path style="opacity:1" fill="#94c4da" d="M 20.5,33.5 C 22.1667,33.5 23.8333,33.5 25.5,33.5C 25.5,33.8333 25.5,34.1667 25.5,34.5C 24.391,34.5569 23.391,34.8902 22.5,35.5C 20.1667,35.5 17.8333,35.5 15.5,35.5C 17.1667,34.8333 18.8333,34.1667 20.5,33.5 Z"/></g>
<g><path style="opacity:1" fill="#61acd7" d="M 39.5,33.5 C 41.5,33.5 43.5,33.5 45.5,33.5C 47.5518,34.0527 47.8852,35.0527 46.5,36.5C 46.1583,35.6618 45.4916,35.3284 44.5,35.5C 42.302,35.8799 40.6354,35.2132 39.5,33.5 Z"/></g>
<g><path style="opacity:1" fill="#b9cbd6" d="M 11.5,27.5 C 11.5,27.8333 11.5,28.1667 11.5,28.5C 11.5,30.1667 11.5,31.8333 11.5,33.5C 11.2525,35.8583 11.9192,37.8583 13.5,39.5C 13.1667,40.1667 12.8333,40.8333 12.5,41.5C 10.9045,39.7853 10.2378,37.1186 10.5,33.5C 10.5046,31.3035 10.838,29.3035 11.5,27.5 Z"/></g>
<g><path style="opacity:1" fill="#82b7de" d="M 25.5,33.5 C 26.8333,33.5 28.1667,33.5 29.5,33.5C 29.8333,33.5 30.1667,33.5 30.5,33.5C 30.1667,34.1667 29.8333,34.8333 29.5,35.5C 29.5,36.1667 29.5,36.8333 29.5,37.5C 28.5,37.5 27.5,37.5 26.5,37.5C 26.6287,39.2161 26.962,40.8828 27.5,42.5C 26.8333,42.1667 26.1667,41.8333 25.5,41.5C 24.8106,40.2264 23.9772,40.2264 23,41.5C 22.5357,40.9056 22.369,40.2389 22.5,39.5C 23.5,39.5 24.5,39.5 25.5,39.5C 25.5,37.8333 25.5,36.1667 25.5,34.5C 25.5,34.1667 25.5,33.8333 25.5,33.5 Z"/></g>
<g><path style="opacity:1" fill="#a0c5e7" d="M 15.5,35.5 C 17.8333,35.5 20.1667,35.5 22.5,35.5C 21.7095,36.4013 20.7095,37.0679 19.5,37.5C 17.5168,37.8432 16.1834,37.1765 15.5,35.5 Z"/></g>
<g><path style="opacity:1" fill="#6aabe5" d="M 39.5,33.5 C 40.6354,35.2132 42.302,35.8799 44.5,35.5C 43.0821,37.3079 41.0821,37.9746 38.5,37.5C 37.5,37.1667 36.8333,36.5 36.5,35.5C 36.5,35.1667 36.5,34.8333 36.5,34.5C 37.209,33.596 38.209,33.2627 39.5,33.5 Z"/></g>
<g><path style="opacity:1" fill="#73b4e0" d="M 54.5,33.5 C 54.5,35.5 54.5,37.5 54.5,39.5C 53.5,39.5 52.5,39.5 51.5,39.5C 51.5,40.8333 51.5,42.1667 51.5,43.5C 50.1667,43.8333 48.8333,44.1667 47.5,44.5C 47.5,44.1667 47.5,43.8333 47.5,43.5C 48.6496,41.6032 49.6496,39.6032 50.5,37.5C 50.5,36.8333 50.8333,36.5 51.5,36.5C 52.7281,35.6935 53.7281,34.6935 54.5,33.5 Z"/></g>
<g><path style="opacity:1" fill="#f3f3f0" d="M 57.5,34.5 C 59.1667,34.5 60.8333,34.5 62.5,34.5C 62.5,35.1667 62.5,35.8333 62.5,36.5C 61.8333,36.1667 61.1667,35.8333 60.5,35.5C 58.8906,36.6654 58.5573,37.9988 59.5,39.5C 59.1667,39.5 58.8333,39.5 58.5,39.5C 57.6618,39.1583 57.3284,38.4916 57.5,37.5C 57.5,36.5 57.5,35.5 57.5,34.5 Z"/></g>
<g><path style="opacity:1" fill="#6e756d" d="M 56.5,29.5 C 56.8333,29.5 57.1667,29.5 57.5,29.5C 57.5,31.1667 57.5,32.8333 57.5,34.5C 57.5,35.5 57.5,36.5 57.5,37.5C 56.7972,39.6287 55.7972,41.6287 54.5,43.5C 54.9926,41.1944 55.3259,38.861 55.5,36.5C 56.4682,34.3926 56.8016,32.0593 56.5,29.5 Z"/></g>
<g><path style="opacity:1" fill="#7a707b" d="M 60.5,35.5 C 60.7678,37.099 60.4345,38.4324 59.5,39.5C 58.5573,37.9988 58.8906,36.6654 60.5,35.5 Z"/></g>
<g><path style="opacity:1" fill="#d1845d" d="M 3.5,28.5 C 3.5,29.1667 3.5,29.8333 3.5,30.5C 3.5,31.5 3.5,32.5 3.5,33.5C 3.5,34.1667 3.5,34.8333 3.5,35.5C 3.5,37.8333 3.5,40.1667 3.5,42.5C 2.83333,41.8333 2.16667,41.1667 1.5,40.5C 1.5,39.5 1.5,38.5 1.5,37.5C 2.16667,34.5 2.83333,31.5 3.5,28.5 Z"/></g>
<g><path style="opacity:1" fill="#fcf0e5" d="M 3.5,35.5 C 4.16667,35.5 4.83333,35.5 5.5,35.5C 5.5,37.5 5.5,39.5 5.5,41.5C 4.83333,41.5 4.5,41.8333 4.5,42.5C 4.16667,42.5 3.83333,42.5 3.5,42.5C 3.5,40.1667 3.5,37.8333 3.5,35.5 Z"/></g>
<g><path style="opacity:1" fill="#8abdd5" d="M 25.5,34.5 C 25.5,36.1667 25.5,37.8333 25.5,39.5C 24.5,39.5 23.5,39.5 22.5,39.5C 21.1001,40.0998 20.1001,41.0998 19.5,42.5C 18.8333,42.5 18.1667,42.5 17.5,42.5C 17.5,41.5 17.5,40.5 17.5,39.5C 18.1667,38.8333 18.8333,38.1667 19.5,37.5C 20.7095,37.0679 21.7095,36.4013 22.5,35.5C 23.391,34.8902 24.391,34.5569 25.5,34.5 Z"/></g>
<g><path style="opacity:1" fill="#65add2" d="M 29.5,35.5 C 31.7922,36.6861 34.1256,36.6861 36.5,35.5C 36.8333,36.5 37.5,37.1667 38.5,37.5C 38.9175,38.2216 39.5842,38.7216 40.5,39C 40.2716,39.3988 39.9382,39.5654 39.5,39.5C 37.9382,39.2671 36.6049,38.6005 35.5,37.5C 33.901,37.2322 32.5676,37.5655 31.5,38.5C 30.5084,38.6716 29.8417,38.3382 29.5,37.5C 29.5,36.8333 29.5,36.1667 29.5,35.5 Z"/></g>
<g><path style="opacity:1" fill="#70b2da" d="M 44.5,35.5 C 45.4916,35.3284 46.1583,35.6618 46.5,36.5C 45.8333,36.5 45.5,36.8333 45.5,37.5C 45.1667,38.1667 44.8333,38.8333 44.5,39.5C 44.385,41.9468 43.385,43.9468 41.5,45.5C 41.1667,45.5 40.8333,45.5 40.5,45.5C 40.5394,44.4168 40.8728,43.4168 41.5,42.5C 40.8075,41.4822 40.1408,40.4822 39.5,39.5C 39.9382,39.5654 40.2716,39.3988 40.5,39C 39.5842,38.7216 38.9175,38.2216 38.5,37.5C 41.0821,37.9746 43.0821,37.3079 44.5,35.5 Z"/></g>
<g><path style="opacity:1" fill="#92b4cb" d="M 50.5,37.5 C 49.6496,39.6032 48.6496,41.6032 47.5,43.5C 45.2355,43.5594 44.9022,42.7261 46.5,41C 46.1639,39.9701 45.4972,39.4701 44.5,39.5C 44.8333,38.8333 45.1667,38.1667 45.5,37.5C 47.3694,38.045 49.0361,38.045 50.5,37.5 Z"/></g>
<g><path style="opacity:1" fill="#f5f2f2" d="M 7.5,39.5 C 8.16667,39.5 8.83333,39.5 9.5,39.5C 10.1667,41.5 10.8333,43.5 11.5,45.5C 11.6716,46.4916 11.3382,47.1583 10.5,47.5C 9.10841,44.9933 8.10841,42.3267 7.5,39.5 Z"/></g>
<g><path style="opacity:1" fill="#359ecf" d="M 35.5,37.5 C 35.8333,38.8333 36.1667,40.1667 36.5,41.5C 34.7163,40.2801 33.0496,40.2801 31.5,41.5C 31.1667,41.5 30.8333,41.5 30.5,41.5C 30.5569,40.391 30.8902,39.391 31.5,38.5C 32.5676,37.5655 33.901,37.2322 35.5,37.5 Z"/></g>
<g><path style="opacity:1" fill="#faecf1" d="M 60.5,35.5 C 61.1667,35.8333 61.8333,36.1667 62.5,36.5C 62.5,37.1667 62.5,37.8333 62.5,38.5C 62.0719,41.7846 61.0719,44.7846 59.5,47.5C 58.8333,47.5 58.1667,47.5 57.5,47.5C 58.7736,45.0075 59.4403,42.3408 59.5,39.5C 60.4345,38.4324 60.7678,37.099 60.5,35.5 Z"/></g>
<g><path style="opacity:1" fill="#698494" d="M 13.5,39.5 C 14.8333,39.5 16.1667,39.5 17.5,39.5C 17.5,40.5 17.5,41.5 17.5,42.5C 17.5,42.8333 17.5,43.1667 17.5,43.5C 16.8333,43.5 16.1667,43.5 15.5,43.5C 15.5,42.1667 14.8333,41.5 13.5,41.5C 13.1667,41.5 12.8333,41.5 12.5,41.5C 12.8333,40.8333 13.1667,40.1667 13.5,39.5 Z"/></g>
<g><path style="opacity:1" fill="#6bbbee" d="M 35.5,37.5 C 36.6049,38.6005 37.9382,39.2671 39.5,39.5C 40.1408,40.4822 40.8075,41.4822 41.5,42.5C 40.8728,43.4168 40.5394,44.4168 40.5,45.5C 40.1667,45.5 39.8333,45.5 39.5,45.5C 38.4884,44.1283 37.4884,42.795 36.5,41.5C 36.1667,40.1667 35.8333,38.8333 35.5,37.5 Z"/></g>
<g><path style="opacity:1" fill="#a7683b" d="M 62.5,38.5 C 62.8333,38.5 63.1667,38.5 63.5,38.5C 63.5,38.8333 63.5,39.1667 63.5,39.5C 63.5,40.8333 63.5,42.1667 63.5,43.5C 62.3472,45.636 61.0138,47.636 59.5,49.5C 59.5,48.8333 59.5,48.1667 59.5,47.5C 61.0719,44.7846 62.0719,41.7846 62.5,38.5 Z"/></g>
<g><path style="opacity:1" fill="#94becb" d="M 13.5,41.5 C 14.8333,41.5 15.5,42.1667 15.5,43.5C 16.3414,45.3792 16.6747,47.3792 16.5,49.5C 14.0181,47.4973 13.0181,44.8306 13.5,41.5 Z"/></g>
<g><path style="opacity:1" fill="#87b9d7" d="M 22.5,39.5 C 22.369,40.2389 22.5357,40.9056 23,41.5C 23.9772,40.2264 24.8106,40.2264 25.5,41.5C 24.5,41.8333 23.8333,42.5 23.5,43.5C 22.8333,43.5 22.1667,43.5 21.5,43.5C 20.5084,43.6716 19.8417,43.3382 19.5,42.5C 20.1001,41.0998 21.1001,40.0998 22.5,39.5 Z"/></g>
<g><path style="opacity:1" fill="#63737e" d="M 25.5,41.5 C 26.1667,41.8333 26.8333,42.1667 27.5,42.5C 27.5,43.1667 27.5,43.8333 27.5,44.5C 26.0413,44.5674 24.7079,44.2341 23.5,43.5C 23.8333,42.5 24.5,41.8333 25.5,41.5 Z"/></g>
<g><path style="opacity:1" fill="#f3eddf" d="M 57.5,37.5 C 57.3284,38.4916 57.6618,39.1583 58.5,39.5C 57.9251,42.9116 56.5918,45.9116 54.5,48.5C 54.5,47.8333 54.5,47.1667 54.5,46.5C 54.5,45.5 54.5,44.5 54.5,43.5C 55.7972,41.6287 56.7972,39.6287 57.5,37.5 Z"/></g>
<g><path style="opacity:0.439" fill="#77aa38" d="M 63.5,39.5 C 63.8333,39.5 64.1667,39.5 64.5,39.5C 64.8333,39.5 65.1667,39.5 65.5,39.5C 65.5,40.1667 65.5,40.8333 65.5,41.5C 65.5979,43.5529 64.9313,45.2196 63.5,46.5C 63.5,45.5 63.5,44.5 63.5,43.5C 63.5,42.1667 63.5,40.8333 63.5,39.5 Z"/></g>
<g><path style="opacity:1" fill="#acbc53" d="M 1.5,40.5 C 2.16667,41.1667 2.83333,41.8333 3.5,42.5C 3.62867,44.2161 3.962,45.8828 4.5,47.5C 3.60433,46.4937 2.93767,46.4937 2.5,47.5C 1.59603,46.791 1.26269,45.791 1.5,44.5C 1.5,43.1667 1.5,41.8333 1.5,40.5 Z"/></g>
<g><path style="opacity:1" fill="#ab613b" d="M 3.5,42.5 C 3.83333,42.5 4.16667,42.5 4.5,42.5C 5.038,44.1172 5.37133,45.7839 5.5,47.5C 5.16667,47.5 4.83333,47.5 4.5,47.5C 3.962,45.8828 3.62867,44.2161 3.5,42.5 Z"/></g>
<g><path style="opacity:1" fill="#74b8e8" d="M 29.5,37.5 C 29.8417,38.3382 30.5084,38.6716 31.5,38.5C 30.8902,39.391 30.5569,40.391 30.5,41.5C 29.7281,42.6935 28.7281,43.6935 27.5,44.5C 27.5,43.8333 27.5,43.1667 27.5,42.5C 26.962,40.8828 26.6287,39.2161 26.5,37.5C 27.5,37.5 28.5,37.5 29.5,37.5 Z"/></g>
<g><path style="opacity:1" fill="#62728f" d="M 30.5,41.5 C 30.8333,41.5 31.1667,41.5 31.5,41.5C 33.1788,41.2852 34.1788,41.9519 34.5,43.5C 32.8868,43.9443 31.7202,44.9443 31,46.5C 30.6667,45.8333 30.3333,45.1667 30,44.5C 29.5831,45.756 28.7498,46.4226 27.5,46.5C 27.5,45.8333 27.5,45.1667 27.5,44.5C 28.7281,43.6935 29.7281,42.6935 30.5,41.5 Z"/></g>
<g><path style="opacity:1" fill="#8cb5c6" d="M 51.5,43.5 C 52.1667,43.5 52.8333,43.5 53.5,43.5C 53.0897,46.2923 51.7564,47.2923 49.5,46.5C 48.8333,45.8333 48.1667,45.1667 47.5,44.5C 48.8333,44.1667 50.1667,43.8333 51.5,43.5 Z"/></g>
<g><path style="opacity:1" fill="#fae9e6" d="M 5.5,41.5 C 7.06518,43.5093 8.06518,45.8427 8.5,48.5C 8.5,49.1667 8.5,49.8333 8.5,50.5C 7.27187,49.6935 6.27187,48.6935 5.5,47.5C 5.37133,45.7839 5.038,44.1172 4.5,42.5C 4.5,41.8333 4.83333,41.5 5.5,41.5 Z"/></g>
<g><path style="opacity:1" fill="#8f7e7e" d="M 5.5,35.5 C 7.17649,36.1834 7.84316,37.5168 7.5,39.5C 8.10841,42.3267 9.10841,44.9933 10.5,47.5C 12.0311,48.9245 11.6977,49.5912 9.5,49.5C 9.5,48.8333 9.16667,48.5 8.5,48.5C 8.06518,45.8427 7.06518,43.5093 5.5,41.5C 5.5,39.5 5.5,37.5 5.5,35.5 Z"/></g>
<g><path style="opacity:1" fill="#99c5e0" d="M 17.5,42.5 C 18.1667,42.5 18.8333,42.5 19.5,42.5C 19.8417,43.3382 20.5084,43.6716 21.5,43.5C 21.5,44.8333 21.5,46.1667 21.5,47.5C 21.1667,47.5 20.8333,47.5 20.5,47.5C 19.5,46.1667 18.5,44.8333 17.5,43.5C 17.5,43.1667 17.5,42.8333 17.5,42.5 Z"/></g>
<g><path style="opacity:1" fill="#4e99c3" d="M 31.5,41.5 C 33.0496,40.2801 34.7163,40.2801 36.5,41.5C 37.4884,42.795 38.4884,44.1283 39.5,45.5C 39.1583,46.3382 38.4916,46.6716 37.5,46.5C 37.5,44.5 36.5,43.5 34.5,43.5C 34.1788,41.9519 33.1788,41.2852 31.5,41.5 Z"/></g>
<g><path style="opacity:1" fill="#8a807d" d="M 44.5,39.5 C 45.4972,39.4701 46.1639,39.9701 46.5,41C 44.9022,42.7261 45.2355,43.5594 47.5,43.5C 47.5,43.8333 47.5,44.1667 47.5,44.5C 46.1667,44.5 44.8333,44.5 43.5,44.5C 43.3915,46.5138 44.0582,48.1805 45.5,49.5C 44.8333,49.5 44.1667,49.5 43.5,49.5C 42.3995,48.3951 41.7329,47.0618 41.5,45.5C 43.385,43.9468 44.385,41.9468 44.5,39.5 Z"/></g>
<g><path style="opacity:1" fill="#678d9b" d="M 15.5,43.5 C 16.1667,43.5 16.8333,43.5 17.5,43.5C 18.5,44.8333 19.5,46.1667 20.5,47.5C 20.4431,48.609 20.1098,49.609 19.5,50.5C 19.1667,50.5 18.8333,50.5 18.5,50.5C 18.1583,49.6618 17.4916,49.3284 16.5,49.5C 16.6747,47.3792 16.3414,45.3792 15.5,43.5 Z"/></g>
<g><path style="opacity:1" fill="#7dbdd6" d="M 21.5,43.5 C 22.1667,43.5 22.8333,43.5 23.5,43.5C 24.7079,44.2341 26.0413,44.5674 27.5,44.5C 27.5,45.1667 27.5,45.8333 27.5,46.5C 27.5,46.8333 27.5,47.1667 27.5,47.5C 27.5,48.1667 27.5,48.8333 27.5,49.5C 25.1137,49.7413 23.1137,49.0746 21.5,47.5C 21.5,46.1667 21.5,44.8333 21.5,43.5 Z"/></g>
<g><path style="opacity:1" fill="#c5ced7" d="M 34.5,43.5 C 35.2571,46.0381 35.2571,48.3714 34.5,50.5C 35.6313,51.6039 36.4646,51.2705 37,49.5C 37.5133,50.5266 38.0133,51.5266 38.5,52.5C 36.5,52.5 34.5,52.5 32.5,52.5C 32.5,50.8333 32.5,49.1667 32.5,47.5C 30.8333,47.5 29.1667,47.5 27.5,47.5C 27.5,47.1667 27.5,46.8333 27.5,46.5C 28.7498,46.4226 29.5831,45.756 30,44.5C 30.3333,45.1667 30.6667,45.8333 31,46.5C 31.7202,44.9443 32.8868,43.9443 34.5,43.5 Z"/></g>
<g><path style="opacity:1" fill="#a8bd4b" d="M 63.5,43.5 C 63.5,44.5 63.5,45.5 63.5,46.5C 62.8305,49.8489 61.1639,52.5156 58.5,54.5C 58.1667,54.5 57.8333,54.5 57.5,54.5C 57.5,53.8333 57.5,53.1667 57.5,52.5C 58.9063,52.0269 59.573,51.0269 59.5,49.5C 61.0138,47.636 62.3472,45.636 63.5,43.5 Z"/></g>
<g><path style="opacity:1" fill="#7d3b2d" d="M 47.5,44.5 C 48.1667,45.1667 48.8333,45.8333 49.5,46.5C 49.5,47.5 49.5,48.5 49.5,49.5C 48.1667,49.5 46.8333,49.5 45.5,49.5C 44.0582,48.1805 43.3915,46.5138 43.5,44.5C 44.8333,44.5 46.1667,44.5 47.5,44.5 Z"/></g>
<g><path style="opacity:1" fill="#8f8780" d="M 53.5,43.5 C 53.8333,43.5 54.1667,43.5 54.5,43.5C 54.5,44.5 54.5,45.5 54.5,46.5C 52.7865,49.2128 50.4532,51.2128 47.5,52.5C 48.1667,51.5 48.8333,50.5 49.5,49.5C 49.5,48.5 49.5,47.5 49.5,46.5C 51.7564,47.2923 53.0897,46.2923 53.5,43.5 Z"/></g>
<g><path style="opacity:0.937" fill="#7cad42" d="M 4.5,47.5 C 4.83333,47.5 5.16667,47.5 5.5,47.5C 5.35403,50.5539 6.68737,52.5539 9.5,53.5C 9.22911,55.3797 9.89578,56.713 11.5,57.5C 11.5,57.8333 11.5,58.1667 11.5,58.5C 9.98261,58.4894 8.81595,57.8228 8,56.5C 5.64225,53.7777 3.80891,50.7777 2.5,47.5C 2.93767,46.4937 3.60433,46.4937 4.5,47.5 Z"/></g>
<g><path style="opacity:1" fill="#ccced5" d="M 27.5,47.5 C 29.1667,47.5 30.8333,47.5 32.5,47.5C 32.5,49.1667 32.5,50.8333 32.5,52.5C 31.1266,52.3433 29.7932,52.51 28.5,53C 29.4158,53.2784 30.0825,53.7784 30.5,54.5C 29.609,55.1098 28.609,55.4431 27.5,55.5C 26.1667,55.5 24.8333,55.5 23.5,55.5C 23.5,55.1667 23.5,54.8333 23.5,54.5C 25.1436,54.1898 26.1436,53.1898 26.5,51.5C 27.3382,51.1583 27.6716,50.4916 27.5,49.5C 27.5,48.8333 27.5,48.1667 27.5,47.5 Z"/></g>
<g><path style="opacity:1" fill="#b0bdcb" d="M 34.5,43.5 C 36.5,43.5 37.5,44.5 37.5,46.5C 38.1224,48.1216 39.1224,49.4549 40.5,50.5C 40.4431,51.609 40.1098,52.609 39.5,53.5C 39.1667,54.8333 38.8333,54.8333 38.5,53.5C 38.5,53.1667 38.5,52.8333 38.5,52.5C 38.0133,51.5266 37.5133,50.5266 37,49.5C 36.4646,51.2705 35.6313,51.6039 34.5,50.5C 35.2571,48.3714 35.2571,46.0381 34.5,43.5 Z"/></g>
<g><path style="opacity:1" fill="#867c77" d="M 58.5,39.5 C 58.8333,39.5 59.1667,39.5 59.5,39.5C 59.4403,42.3408 58.7736,45.0075 57.5,47.5C 57.0432,49.7727 55.7099,51.106 53.5,51.5C 53.5569,50.391 53.8902,49.391 54.5,48.5C 56.5918,45.9116 57.9251,42.9116 58.5,39.5 Z"/></g>
<g><path style="opacity:1" fill="#fdebe4" d="M 57.5,47.5 C 58.1667,47.5 58.8333,47.5 59.5,47.5C 59.5,48.1667 59.5,48.8333 59.5,49.5C 58.0937,49.9731 57.427,50.9731 57.5,52.5C 56.8333,52.8333 56.1667,53.1667 55.5,53.5C 54.8333,53.5 54.1667,53.5 53.5,53.5C 53.5,52.8333 53.5,52.1667 53.5,51.5C 55.7099,51.106 57.0432,49.7727 57.5,47.5 Z"/></g>
<g><path style="opacity:1" fill="#96c6dc" d="M 20.5,47.5 C 20.8333,47.5 21.1667,47.5 21.5,47.5C 23.1137,49.0746 25.1137,49.7413 27.5,49.5C 27.6716,50.4916 27.3382,51.1583 26.5,51.5C 24.2444,51.6018 21.911,51.2684 19.5,50.5C 20.1098,49.609 20.4431,48.609 20.5,47.5 Z"/></g>
<g><path style="opacity:1" fill="#8abbde" d="M 39.5,45.5 C 39.8333,45.5 40.1667,45.5 40.5,45.5C 40.8333,45.5 41.1667,45.5 41.5,45.5C 41.7329,47.0618 42.3995,48.3951 43.5,49.5C 42.609,50.1098 41.609,50.4431 40.5,50.5C 39.1224,49.4549 38.1224,48.1216 37.5,46.5C 38.4916,46.6716 39.1583,46.3382 39.5,45.5 Z"/></g>
<g><path style="opacity:1" fill="#bd7e4a" d="M 5.5,47.5 C 6.27187,48.6935 7.27187,49.6935 8.5,50.5C 9.10978,51.391 9.44312,52.391 9.5,53.5C 6.68737,52.5539 5.35403,50.5539 5.5,47.5 Z"/></g>
<g><path style="opacity:1" fill="#fbf3ef" d="M 8.5,48.5 C 9.16667,48.5 9.5,48.8333 9.5,49.5C 9.83333,50.5 10.5,51.1667 11.5,51.5C 12.1667,52.5 12.8333,53.5 13.5,54.5C 12.8333,54.5 12.1667,54.5 11.5,54.5C 10.8333,54.1667 10.1667,53.8333 9.5,53.5C 9.44312,52.391 9.10978,51.391 8.5,50.5C 8.5,49.8333 8.5,49.1667 8.5,48.5 Z"/></g>
<g><path style="opacity:1" fill="#ece9e1" d="M 11.5,45.5 C 12.8545,47.5212 14.5212,49.1879 16.5,50.5C 16.5,51.1667 16.5,51.8333 16.5,52.5C 16.5,52.8333 16.5,53.1667 16.5,53.5C 14.629,53.1412 13.129,52.1412 12,50.5C 11.6012,50.7284 11.4346,51.0618 11.5,51.5C 10.5,51.1667 9.83333,50.5 9.5,49.5C 11.6977,49.5912 12.0311,48.9245 10.5,47.5C 11.3382,47.1583 11.6716,46.4916 11.5,45.5 Z"/></g>
<g><path style="opacity:1" fill="#a9d0e8" d="M 43.5,49.5 C 44.1667,49.5 44.8333,49.5 45.5,49.5C 45.5,50.8333 45.5,52.1667 45.5,53.5C 43.5,53.5 41.5,53.5 39.5,53.5C 40.1098,52.609 40.4431,51.609 40.5,50.5C 41.609,50.4431 42.609,50.1098 43.5,49.5 Z"/></g>
<g><path style="opacity:1" fill="#ac6d31" d="M 59.5,49.5 C 59.573,51.0269 58.9063,52.0269 57.5,52.5C 57.427,50.9731 58.0937,49.9731 59.5,49.5 Z"/></g>
<g><path style="opacity:1" fill="#817375" d="M 16.5,53.5 C 17.8333,54.8333 19.1667,56.1667 20.5,57.5C 20.1667,57.5 19.8333,57.5 19.5,57.5C 17.5,56.5 15.5,55.5 13.5,54.5C 12.8333,53.5 12.1667,52.5 11.5,51.5C 11.4346,51.0618 11.6012,50.7284 12,50.5C 13.129,52.1412 14.629,53.1412 16.5,53.5 Z"/></g>
<g><path style="opacity:1" fill="#898483" d="M 16.5,49.5 C 17.4916,49.3284 18.1583,49.6618 18.5,50.5C 19.5794,52.543 21.246,53.8763 23.5,54.5C 23.5,54.8333 23.5,55.1667 23.5,55.5C 21.0202,54.758 18.6869,53.758 16.5,52.5C 16.5,51.8333 16.5,51.1667 16.5,50.5C 16.5,50.1667 16.5,49.8333 16.5,49.5 Z"/></g>
<g><path style="opacity:1" fill="#b3cde0" d="M 18.5,50.5 C 18.8333,50.5 19.1667,50.5 19.5,50.5C 21.911,51.2684 24.2444,51.6018 26.5,51.5C 26.1436,53.1898 25.1436,54.1898 23.5,54.5C 21.246,53.8763 19.5794,52.543 18.5,50.5 Z"/></g>
<g><path style="opacity:1" fill="#fbf4ec" d="M 54.5,46.5 C 54.5,47.1667 54.5,47.8333 54.5,48.5C 53.8902,49.391 53.5569,50.391 53.5,51.5C 51.5887,52.075 49.922,53.075 48.5,54.5C 48.5,53.8333 48.1667,53.5 47.5,53.5C 47.5,53.1667 47.5,52.8333 47.5,52.5C 50.4532,51.2128 52.7865,49.2128 54.5,46.5 Z"/></g>
<g><path style="opacity:1" fill="#a29a98" d="M 32.5,52.5 C 34.5,52.5 36.5,52.5 38.5,52.5C 38.5,52.8333 38.5,53.1667 38.5,53.5C 37.209,53.2627 36.209,53.596 35.5,54.5C 33.8333,54.5 32.1667,54.5 30.5,54.5C 30.0825,53.7784 29.4158,53.2784 28.5,53C 29.7932,52.51 31.1266,52.3433 32.5,52.5 Z"/></g>
<g><path style="opacity:1" fill="#b7b8b6" d="M 45.5,49.5 C 46.8333,49.5 48.1667,49.5 49.5,49.5C 48.8333,50.5 48.1667,51.5 47.5,52.5C 47.5,52.8333 47.5,53.1667 47.5,53.5C 45.9505,54.4408 44.2838,55.1075 42.5,55.5C 41.1667,55.5 39.8333,55.5 38.5,55.5C 37.609,54.8902 36.609,54.5569 35.5,54.5C 36.209,53.596 37.209,53.2627 38.5,53.5C 38.8333,54.8333 39.1667,54.8333 39.5,53.5C 41.5,53.5 43.5,53.5 45.5,53.5C 45.5,52.1667 45.5,50.8333 45.5,49.5 Z"/></g>
<g><path style="opacity:1" fill="#807472" d="M 53.5,51.5 C 53.5,52.1667 53.5,52.8333 53.5,53.5C 50.6612,55.4203 47.6612,57.0869 44.5,58.5C 43.8333,58.5 43.5,58.1667 43.5,57.5C 45.3684,56.7368 47.0351,55.7368 48.5,54.5C 49.922,53.075 51.5887,52.075 53.5,51.5 Z"/></g>
<g><path style="opacity:1" fill="#f9e3df" d="M 53.5,53.5 C 54.1667,53.5 54.8333,53.5 55.5,53.5C 53.3633,56.973 50.3633,59.3064 46.5,60.5C 45.8333,59.8333 45.1667,59.1667 44.5,58.5C 47.6612,57.0869 50.6612,55.4203 53.5,53.5 Z"/></g>
<g><path style="opacity:1" fill="#f1f1e4" d="M 47.5,53.5 C 48.1667,53.5 48.5,53.8333 48.5,54.5C 47.0351,55.7368 45.3684,56.7368 43.5,57.5C 41.8828,58.038 40.2161,58.3713 38.5,58.5C 37.8333,58.5 37.5,58.1667 37.5,57.5C 39.5529,57.5979 41.2196,56.9313 42.5,55.5C 44.2838,55.1075 45.9505,54.4408 47.5,53.5 Z"/></g>
<g><path style="opacity:1" fill="#c59349" d="M 9.5,53.5 C 10.1667,53.8333 10.8333,54.1667 11.5,54.5C 12.1667,55.5 12.8333,56.5 13.5,57.5C 12.8333,57.5 12.1667,57.5 11.5,57.5C 9.89578,56.713 9.22911,55.3797 9.5,53.5 Z"/></g>
<g><path style="opacity:1" fill="#f9e7e4" d="M 11.5,54.5 C 12.1667,54.5 12.8333,54.5 13.5,54.5C 15.5,55.5 17.5,56.5 19.5,57.5C 19.1667,58.5 18.5,59.1667 17.5,59.5C 16.3951,58.3995 15.0618,57.7329 13.5,57.5C 12.8333,56.5 12.1667,55.5 11.5,54.5 Z"/></g>
<g><path style="opacity:1" fill="#eadfdb" d="M 16.5,52.5 C 18.6869,53.758 21.0202,54.758 23.5,55.5C 23.9175,56.2216 24.5842,56.7216 25.5,57C 29.4862,57.4988 33.4862,57.6655 37.5,57.5C 37.5,58.1667 37.8333,58.5 38.5,58.5C 37.7375,59.2679 36.7375,59.7679 35.5,60C 37.1341,60.4935 38.8008,60.6602 40.5,60.5C 40.5,60.8333 40.5,61.1667 40.5,61.5C 36.1667,60.8333 31.8333,60.1667 27.5,59.5C 27.1583,58.6618 26.4916,58.3284 25.5,58.5C 23.8828,57.962 22.2161,57.6287 20.5,57.5C 19.1667,56.1667 17.8333,54.8333 16.5,53.5C 16.5,53.1667 16.5,52.8333 16.5,52.5 Z"/></g>
<g><path style="opacity:1" fill="#afa797" d="M 30.5,54.5 C 32.1667,54.5 33.8333,54.5 35.5,54.5C 36.609,54.5569 37.609,54.8902 38.5,55.5C 34.8333,56.8333 31.1667,56.8333 27.5,55.5C 28.609,55.4431 29.609,55.1098 30.5,54.5 Z"/></g>
<g><path style="opacity:1" fill="#837a65" d="M 23.5,55.5 C 24.8333,55.5 26.1667,55.5 27.5,55.5C 31.1667,56.8333 34.8333,56.8333 38.5,55.5C 39.8333,55.5 41.1667,55.5 42.5,55.5C 41.2196,56.9313 39.5529,57.5979 37.5,57.5C 33.4862,57.6655 29.4862,57.4988 25.5,57C 24.5842,56.7216 23.9175,56.2216 23.5,55.5 Z"/></g>
<g><path style="opacity:1" fill="#b76e48" d="M 13.5,57.5 C 15.0618,57.7329 16.3951,58.3995 17.5,59.5C 17.5,59.8333 17.5,60.1667 17.5,60.5C 15.368,60.4456 14.0347,59.4456 13.5,57.5 Z"/></g>
<g><path style="opacity:1" fill="#ad8b7e" d="M 19.5,57.5 C 19.8333,57.5 20.1667,57.5 20.5,57.5C 22.2161,57.6287 23.8828,57.962 25.5,58.5C 23.9867,59.3093 22.3201,59.4759 20.5,59C 21.6226,60.0437 22.9559,60.7104 24.5,61C 23.2625,61.2321 22.2625,61.7321 21.5,62.5C 19.847,62.3404 18.5137,61.6737 17.5,60.5C 17.5,60.1667 17.5,59.8333 17.5,59.5C 18.5,59.1667 19.1667,58.5 19.5,57.5 Z"/></g>
<g><path style="opacity:0.565" fill="#8dad3d" d="M 57.5,54.5 C 57.8333,54.5 58.1667,54.5 58.5,54.5C 58.4894,56.0174 57.8228,57.1841 56.5,58C 54.2833,59.7235 51.95,61.2235 49.5,62.5C 49.5,62.1667 49.5,61.8333 49.5,61.5C 52.1413,59.1956 54.808,56.8623 57.5,54.5 Z"/></g>
<g><path style="opacity:1" fill="#cfb7b7" d="M 25.5,58.5 C 26.4916,58.3284 27.1583,58.6618 27.5,59.5C 27.8993,60.5211 29.2326,60.8545 31.5,60.5C 31.5,61.5 31.5,62.5 31.5,63.5C 29.1667,63.5 26.8333,63.5 24.5,63.5C 23.791,62.596 22.791,62.2627 21.5,62.5C 22.2625,61.7321 23.2625,61.2321 24.5,61C 22.9559,60.7104 21.6226,60.0437 20.5,59C 22.3201,59.4759 23.9867,59.3093 25.5,58.5 Z"/></g>
<g><path style="opacity:1" fill="#9f958b" d="M 43.5,57.5 C 43.5,58.1667 43.8333,58.5 44.5,58.5C 45.1667,59.1667 45.8333,59.8333 46.5,60.5C 44.5,60.5 42.5,60.5 40.5,60.5C 38.8008,60.6602 37.1341,60.4935 35.5,60C 36.7375,59.7679 37.7375,59.2679 38.5,58.5C 40.2161,58.3713 41.8828,58.038 43.5,57.5 Z"/></g>
<g><path style="opacity:1" fill="#b27332" d="M 57.5,52.5 C 57.5,53.1667 57.5,53.8333 57.5,54.5C 54.808,56.8623 52.1413,59.1956 49.5,61.5C 48.5,61.5 47.5,61.5 46.5,61.5C 46.5,61.1667 46.5,60.8333 46.5,60.5C 50.3633,59.3064 53.3633,56.973 55.5,53.5C 56.1667,53.1667 56.8333,52.8333 57.5,52.5 Z"/></g>
<g><path style="opacity:0.749" fill="#a1a93f" d="M 11.5,57.5 C 12.1667,57.5 12.8333,57.5 13.5,57.5C 14.0347,59.4456 15.368,60.4456 17.5,60.5C 18.5137,61.6737 19.847,62.3404 21.5,62.5C 22.791,62.2627 23.791,62.596 24.5,63.5C 23.209,63.2627 22.209,63.596 21.5,64.5C 17.4945,63.5023 14.1612,61.5023 11.5,58.5C 11.5,58.1667 11.5,57.8333 11.5,57.5 Z"/></g>
<g><path style="opacity:1" fill="#c7967f" d="M 40.5,61.5 C 40.5,61.1667 40.5,60.8333 40.5,60.5C 42.5,60.5 44.5,60.5 46.5,60.5C 46.5,60.8333 46.5,61.1667 46.5,61.5C 45.2196,62.9313 43.5529,63.5979 41.5,63.5C 41.6716,62.5084 41.3382,61.8417 40.5,61.5 Z"/></g>
<g><path style="opacity:1" fill="#b29ca0" d="M 27.5,59.5 C 31.8333,60.1667 36.1667,60.8333 40.5,61.5C 41.3382,61.8417 41.6716,62.5084 41.5,63.5C 38.1667,63.5 34.8333,63.5 31.5,63.5C 31.5,62.5 31.5,61.5 31.5,60.5C 29.2326,60.8545 27.8993,60.5211 27.5,59.5 Z"/></g>
<g><path style="opacity:0.937" fill="#adb743" d="M 46.5,61.5 C 47.5,61.5 48.5,61.5 49.5,61.5C 49.5,61.8333 49.5,62.1667 49.5,62.5C 46.9209,64.0252 44.2542,65.3586 41.5,66.5C 40.1667,66.5 38.8333,66.5 37.5,66.5C 37.5,66.1667 37.5,65.8333 37.5,65.5C 38.8333,64.8333 40.1667,64.1667 41.5,63.5C 43.5529,63.5979 45.2196,62.9313 46.5,61.5 Z"/></g>
<g><path style="opacity:0.749" fill="#a4bf35" d="M 24.5,63.5 C 24.6107,64.1174 24.944,64.6174 25.5,65C 29.4862,65.4988 33.4862,65.6655 37.5,65.5C 37.5,65.8333 37.5,66.1667 37.5,66.5C 33.1667,66.5 28.8333,66.5 24.5,66.5C 23.5,65.8333 22.5,65.1667 21.5,64.5C 22.209,63.596 23.209,63.2627 24.5,63.5 Z"/></g>
<g><path style="opacity:1" fill="#c58243" d="M 24.5,63.5 C 26.8333,63.5 29.1667,63.5 31.5,63.5C 34.8333,63.5 38.1667,63.5 41.5,63.5C 40.1667,64.1667 38.8333,64.8333 37.5,65.5C 33.4862,65.6655 29.4862,65.4988 25.5,65C 24.944,64.6174 24.6107,64.1174 24.5,63.5 Z"/></g>
</svg>
